<svg width="20" height="20" viewBox="0 0 20 20" fill="none" xmlns="http://www.w3.org/2000/svg">
<path d="M10.0001 1.66663C5.40008 1.66663 1.66675 5.39996 1.66675 9.99996C1.66675 14.6 5.40008 18.3333 10.0001 18.3333C14.6001 18.3333 18.3334 14.6 18.3334 9.99996C18.3334 5.39996 14.6001 1.66663 10.0001 1.66663ZM10.0001 16.6666C6.32508 16.6666 3.33341 13.675 3.33341 9.99996C3.33341 6.32496 6.32508 3.33329 10.0001 3.33329C13.6751 3.33329 16.6667 6.32496 16.6667 9.99996C16.6667 13.675 13.6751 16.6666 10.0001 16.6666ZM5.41675 14.5833L11.6751 11.675L14.5834 5.41663L8.32508 8.32496L5.41675 14.5833ZM10.0001 9.08329C10.5084 9.08329 10.9167 9.49163 10.9167 9.99996C10.9167 10.5083 10.5084 10.9166 10.0001 10.9166C9.49175 10.9166 9.08341 10.5083 9.08341 9.99996C9.08341 9.49163 9.49175 9.08329 10.0001 9.08329Z" fill="white"/>
</svg>
