<svg width="22" height="22" viewBox="0 0 22 22" fill="none" xmlns="http://www.w3.org/2000/svg">
<path d="M18.239 4.53862C18.6021 4.96762 18.9112 5.44282 19.1565 5.95432C18.9524 6.15925 18.7098 6.3218 18.4427 6.43261C18.1756 6.54343 17.8892 6.60032 17.6 6.60002C17.2068 6.60066 16.8208 6.4954 16.4824 6.29532L18.239 4.53862ZM17.4614 3.75982L15.7047 5.51762C15.4557 5.09753 15.3541 4.60639 15.4159 4.122C15.4776 3.63762 15.6993 3.1877 16.0457 2.84352C16.5572 3.08882 17.0324 3.39792 17.4614 3.75982ZM19.8 8.80002C19.8005 8.20916 19.7217 7.62091 19.5657 7.05102C19.0157 7.45802 18.3359 7.70002 17.6 7.70002C16.9142 7.70119 16.2453 7.48771 15.6871 7.08952L14.5277 8.25002L18.711 12.4333C19.3985 11.3905 19.8 10.142 19.8 8.80002ZM14.3 4.40002C14.3 3.66302 14.5409 2.98322 14.949 2.43432C14.3791 2.27836 13.7908 2.19956 13.2 2.20002C11.9081 2.19775 10.6443 2.57655 9.56665 3.28902L13.75 7.47232L14.9094 6.31182C14.5118 5.75369 14.2988 5.08524 14.3 4.40002ZM12.8777 9.90002C14.1737 11.3447 15.0147 13.1397 15.2955 15.0601C16.3371 14.7107 17.2751 14.1069 18.0246 13.3034L13.75 9.02772L12.8777 9.90002ZM12.9723 8.25002L12.1 9.12122C10.6556 7.82537 8.86101 6.98434 6.94095 6.70342C7.29056 5.66216 7.89435 4.72453 8.69765 3.97542L12.9723 8.25002ZM3.84995 7.70002C3.41234 7.70002 2.99266 7.87386 2.68323 8.1833C2.37379 8.49273 2.19995 8.91242 2.19995 9.35002V11C2.19995 13.3339 3.12709 15.5722 4.77741 17.2226C6.42773 18.8729 8.66605 19.8 11 19.8H12.65C13.0876 19.8 13.5072 19.6262 13.8167 19.3167C14.1261 19.0073 14.3 18.5876 14.3 18.15V16.5C14.3 14.1661 13.3728 11.9278 11.7225 10.2775C10.0722 8.62716 7.83386 7.70002 5.49995 7.70002H3.84995ZM6.76055 12.2606C6.81164 12.2094 6.87233 12.1688 6.93915 12.141C7.00597 12.1133 7.07761 12.099 7.14995 12.099C7.2223 12.099 7.29393 12.1133 7.36075 12.141C7.42757 12.1688 7.48826 12.2094 7.53935 12.2606L9.73935 14.4606C9.84263 14.5639 9.90065 14.704 9.90065 14.85C9.90065 14.9961 9.84263 15.1361 9.73935 15.2394C9.63608 15.3427 9.496 15.4007 9.34995 15.4007C9.2039 15.4007 9.06383 15.3427 8.96055 15.2394L6.76055 13.0394C6.70933 12.9883 6.66869 12.9276 6.64097 12.8608C6.61324 12.794 6.59897 12.7224 6.59897 12.65C6.59897 12.5777 6.61324 12.506 6.64097 12.4392C6.66869 12.3724 6.70933 12.3117 6.76055 12.2606Z" fill="white"/>
</svg>
