<svg width="22" height="22" viewBox="0 0 22 22" fill="none" xmlns="http://www.w3.org/2000/svg">
<path d="M5.11917 15.7143L9.55862 18.1029V20.9524H2.12414C0.945241 20.9524 0 20.02 0 18.8571V2.09524C0 1.53955 0.223792 1.00661 0.622145 0.613681C1.0205 0.220748 1.56078 0 2.12414 0H3.18621V7.33333L5.84138 5.76191L8.49655 7.33333V0H14.869C15.4323 0 15.9726 0.220748 16.371 0.613681C16.7693 1.00661 16.9931 1.53955 16.9931 2.09524V11.0419L15.4 10.1829L5.11917 15.7143ZM21.2414 15.7143L15.4 12.5714L9.55862 15.7143L15.4 18.8571L21.2414 15.7143ZM11.6828 17.9038V19.999L15.4 22L19.1172 19.999V17.9038L15.4 19.9048L11.6828 17.9038Z" fill="white"/>
</svg>
